<?xml version="1.0" encoding="UTF-8"?>
<svg version="1.1" xmlns="http://www.w3.org/2000/svg" width="537" height="150">
<path d="M0 0 C5.733275 1.91109167 11.46551417 1.21917145 17.30859375 -0.01171875 C18.19216553 -0.19565186 19.0757373 -0.37958496 19.98608398 -0.5690918 C20.65067627 -0.7112915 21.31526855 -0.85349121 22 -1 C23.98035948 2.29095044 25.95908446 5.58288062 27.9375 8.875 C28.50146484 9.81214844 29.06542969 10.74929687 29.64648438 11.71484375 C30.18466797 12.61074219 30.72285156 13.50664063 31.27734375 14.4296875 C31.77484131 15.25710449 32.27233887 16.08452148 32.78491211 16.93701172 C35.96052814 22.32860414 35.53902624 27.85360357 35 34 C32.6156649 39.03359633 29.00006427 42.49996787 24 45 C22.09186918 45.11161739 20.17986504 45.15927037 18.26855469 45.17700195 C17.06680603 45.18983719 15.86505737 45.20267242 14.62689209 45.21589661 C13.32173645 45.22328354 12.01658081 45.23067047 10.671875 45.23828125 C10.00821175 45.24235678 9.34454849 45.2464323 8.66077423 45.25063133 C5.14608573 45.27149397 1.63143625 45.28579315 -1.88330078 45.29516602 C-5.50601176 45.30621365 -9.12810562 45.34059275 -12.75059891 45.38033772 C-15.54224757 45.40654443 -18.33375033 45.41486151 -21.12551117 45.41844749 C-23.1074652 45.42566057 -25.08931934 45.45208531 -27.07110596 45.47883606 C-38.254704 45.45189311 -38.254704 45.45189311 -43 41 C-47.7598753 35.59689831 -48.62906654 32.02675357 -48.62109375 24.8671875 C-47.52023878 18.01280751 -43.80393153 12.44830642 -40.06811523 6.69213867 C-38.87249114 4.85550217 -38.87249114 4.85550217 -37.578125 2.20703125 C-28.99952091 -9.79027398 -10.68902168 -5.59202678 0 0 Z M-27 19 C-28.12516085 20.83284443 -28.12516085 20.83284443 -29 23 C-28.67 23.99 -28.34 24.98 -28 26 C-25.65466049 26.76956136 -25.65466049 26.76956136 -23 27 C-21.01970318 25.93654948 -21.01970318 25.93654948 -20 24 C-20.25146579 21.86254078 -20.45925779 20.54074221 -22 19 C-23.66617115 18.95936168 -25.33388095 18.957279 -27 19 Z " fill="#D213CB" transform="translate(183,104)"/>
<path d="M0 0 C28 0 28 0 35 4 C38.80008521 9.95605193 38.45093194 16.09863006 38.375 23 C38.38660156 24.05445312 38.39820313 25.10890625 38.41015625 26.1953125 C38.38746892 32.23014359 37.9635085 36.70029501 35 42 C31.80645161 45 31.80645161 45 29 45 C29.27263672 45.68626465 29.54527344 46.3725293 29.82617188 47.07958984 C31.05430036 50.17667796 32.27721136 53.27579996 33.5 56.375 C33.92925781 57.45523438 34.35851562 58.53546875 34.80078125 59.6484375 C35.20683594 60.6796875 35.61289062 61.7109375 36.03125 62.7734375 C36.59682617 64.20308838 36.59682617 64.20308838 37.17382812 65.66162109 C38 68 38 68 38 70 C33.38 70 28.76 70 24 70 C22.66035453 66.73162389 21.3280741 63.46057452 20 60.1875 C19.6184375 59.25873047 19.236875 58.32996094 18.84375 57.37304688 C18.4828125 56.48037109 18.121875 55.58769531 17.75 54.66796875 C17.41484375 53.84578857 17.0796875 53.0236084 16.734375 52.17651367 C16 50 16 50 16 47 C15.01 47 14.02 47 13 47 C13 54.59 13 62.18 13 70 C8.71 70 4.42 70 0 70 C0 46.9 0 23.8 0 0 Z M13 12 C13 19.26 13 26.52 13 34 C20.26213521 34.42163702 20.26213521 34.42163702 24 33 C25.57255046 29.85489907 25.22572668 26.51234555 25.25 23.0625 C25.270625 22.33353516 25.29125 21.60457031 25.3125 20.85351562 C25.36387528 18.45360595 25.36387528 18.45360595 25 15 C24.01 14.01 23.02 13.02 22 12 C19.03 12 16.06 12 13 12 Z " fill="#FFFFFF" transform="translate(322,54)"/>
<path d="M0 0 C13.53 0 27.06 0 41 0 C41.1875 17.9375 41.1875 17.9375 41.20776367 23.54272461 C41.27478334 34.62345291 41.27478334 34.62345291 45.93481445 44.50610352 C47 46 47 46 47 48 C40.33804634 50.96086829 32.75404176 51.30779901 25.8828125 48.9140625 C23.20692703 47.68613628 20.60794644 46.36436306 18 45 C10.498113 42.499371 2.50543947 44.21146974 -5 46 C-3.14290486 41.22461251 -3.14290486 41.22461251 -1.95556641 39.35839844 C-0.52459168 35.82666213 -0.64077565 32.27339918 -0.5859375 28.515625 C-0.55947144 27.43063721 -0.55947144 27.43063721 -0.5324707 26.32373047 C-0.46960692 23.63270931 -0.42327997 20.94132231 -0.375 18.25 C-0.25125 12.2275 -0.1275 6.205 0 0 Z " fill="#990FE3" transform="translate(156,53)"/>
<path d="M0 0 C4.30018167 0.5742276 6.20512022 2.09166042 8.8125 5.5 C18.10130014 20.98863608 19.31346706 37.0546213 19.125 54.5625 C19.1149459 56.1985622 19.10582436 57.83463042 19.09765625 59.47070312 C19.07584492 63.43895316 19.04145053 67.40690851 19 71.375 C15.04 71.375 11.08 71.375 7 71.375 C7 67.085 7 62.795 7 58.375 C2.71 58.375 -1.58 58.375 -6 58.375 C-6 62.665 -6 66.955 -6 71.375 C-10.29 71.375 -14.58 71.375 -19 71.375 C-19.65164304 31.26275062 -19.65164304 31.26275062 -12 13.375 C-11.24203125 11.59802734 -11.24203125 11.59802734 -10.46875 9.78515625 C-5.95385527 0.65953177 -5.95385527 0.65953177 0 0 Z M0 19.375 C-2.23981054 24.23105983 -3.67014901 28.7140811 -4.6875 34 C-5.06455078 35.90652344 -5.06455078 35.90652344 -5.44921875 37.8515625 C-6.12870309 41.60396357 -6.12870309 41.60396357 -6 46.375 C-2.04 46.375 1.92 46.375 6 46.375 C6.43999725 40.21503852 5.60399799 34.8854703 4.125 28.9375 C3.95129883 28.22722656 3.77759766 27.51695313 3.59863281 26.78515625 C2.55094272 22.68016394 2.55094272 22.68016394 0 19.375 Z " fill="#FFFFFF" transform="translate(293,52.625)"/>
<path d="M0 0 C0.77666016 -0.00708984 1.55332031 -0.01417969 2.35351562 -0.02148438 C7.26797424 0.03261212 10.66935792 0.77480586 14.9375 3.4375 C19.46868527 8.2811808 19.04244799 13.14062053 18.9375 19.4375 C14.6475 19.4375 10.3575 19.4375 5.9375 19.4375 C5.6075 17.4575 5.2775 15.4775 4.9375 13.4375 C1.3075 13.4375 -2.3225 13.4375 -6.0625 13.4375 C-6.0625 17.7275 -6.0625 22.0175 -6.0625 26.4375 C-4.0825 26.540625 -2.1025 26.64375 -0.0625 26.75 C12.21276596 27.71276596 12.21276596 27.71276596 16.875 32.375 C19.62712929 37.71736863 19.15690391 43.44570049 19.1875 49.3125 C19.208125 50.29347656 19.22875 51.27445313 19.25 52.28515625 C19.27957077 57.76314067 19.07233038 61.72764561 15.9375 66.4375 C11.19505504 70.73534075 6.32184836 70.67603278 0.1875 70.75 C-0.59882813 70.77900391 -1.38515625 70.80800781 -2.1953125 70.83789062 C-7.99326851 70.90049314 -11.29514537 69.7622655 -16.0625 66.4375 C-19.77138429 61.37993052 -19.16578656 54.42812047 -19.0625 48.4375 C-14.7725 48.4375 -10.4825 48.4375 -6.0625 48.4375 C-6.0625 51.4075 -6.0625 54.3775 -6.0625 57.4375 C-2.1025 57.4375 1.8575 57.4375 5.9375 57.4375 C5.9375 51.8275 5.9375 46.2175 5.9375 40.4375 C1.27182719 40.22848633 1.27182719 40.22848633 -3.39501953 40.04956055 C-7.94867589 39.79575627 -11.18362835 38.81338114 -15.0625 36.4375 C-20.32129281 29.54666804 -19.55750056 20.7030754 -19.0625 12.4375 C-18.28049049 7.75261737 -16.98198758 5.09478076 -13.0078125 2.25390625 C-8.70730231 -0.05512237 -4.7971727 -0.12403032 0 0 Z " fill="#FFFFFF" transform="translate(387.0625,53.5625)"/>
<path d="M0 0 C11.55 0 23.1 0 35 0 C35 3.96 35 7.92 35 12 C31.37 12 27.74 12 24 12 C24 31.14 24 50.28 24 70 C19.71 70 15.42 70 11 70 C11 50.86 11 31.72 11 12 C7.37 12 3.74 12 0 12 C0 8.04 0 4.08 0 0 Z " fill="#FFFFFF" transform="translate(236,54)"/>
<path d="M0 0 C18.81 0 37.62 0 57 0 C57 2.97 57 5.94 57 9 C38.19 9 19.38 9 0 9 C0 6.03 0 3.06 0 0 Z " fill="#860EEC" transform="translate(148,41)"/>
<path d="M0 0 C2 2 2 2 2.3125 5.4375 C2 9 2 9 0.875 10.9375 C-1.90191125 12.51108304 -3.86229327 12.38420899 -7 12 C-9.375 10.875 -9.375 10.875 -11 9 C-11.4375 6 -11.4375 6 -11 3 C-7.75417192 -1.27859156 -5.03165369 -1.15308731 0 0 Z " fill="#FD54A3" transform="translate(214,13)"/>
<path d="M0 0 C2.51594502 0.08234002 3.86661565 0.21158988 6.125 1.375 C7.64549975 4.51736615 6.84322633 7.00942708 6.0625 10.3125 C4.0625 12.3125 4.0625 12.3125 0.625 12.625 C-2.9375 12.3125 -2.9375 12.3125 -4.875 11.25 C-6.52912584 8.23365289 -6.24325763 5.67583392 -5.9375 2.3125 C-3.9375 0.3125 -3.9375 0.3125 0 0 Z " fill="#FDAF83" transform="translate(150.9375,0.6875)"/>
<path d="M0 0 C3.0625 0.25 3.0625 0.25 6.0625 2.25 C6.5625 5.6875 6.5625 5.6875 6.0625 9.25 C3.875 11.3125 3.875 11.3125 1.0625 12.25 C-2.79054802 11.35394232 -3.70519266 10.59846101 -5.9375 7.25 C-5.50255443 2.79180787 -4.8294944 0.4110208 0 0 Z " fill="#FD908E" transform="translate(177.9375,16.75)"/>
</svg>
